
        <svg xmlns="http://www.w3.org/2000/svg" xmlns:xlink="http://www.w3.org/1999/xlink" version="1.1" width="3147.783251231527" height="1049.2610837438424" viewBox="0 0 3147.783251231527 1049.2610837438424">
			
			<g transform="scale(7.389162561576355) translate(10, 10)">
				<defs id="SvgjsDefs1143"/><g id="SvgjsG1144" featureKey="rZF8Vg-0" transform="matrix(2.1246140817441184,0,0,2.1246140817441184,-0.9191704658064653,10.362610304764083)" fill="#1B2145"><g xmlns="http://www.w3.org/2000/svg"><path d="M12.1,34.4l1.4,1.4l9.2-9.2c2.7,2.4,6.2,3.7,9.8,3.7c4,0,7.7-1.6,10.6-4.4c2.8-2.8,4.4-6.6,4.4-10.6   c0-4-1.6-7.7-4.4-10.6c-2.8-2.8-6.6-4.4-10.6-4.4c-4,0-7.7,1.6-10.6,4.4c-5.6,5.6-5.8,14.5-0.7,20.4L12.1,34.4z M23.5,6.3   c2.4-2.4,5.7-3.8,9.1-3.8c3.4,0,6.7,1.3,9.1,3.8s3.8,5.7,3.8,9.1c0,3.4-1.3,6.7-3.8,9.1c-2.4,2.4-5.7,3.8-9.1,3.8   c-3.4,0-6.7-1.3-9.1-3.8C18.4,19.5,18.4,11.3,23.5,6.3z"/><rect x="4.3" y="33.1" transform="matrix(-0.7071 -0.7071 0.7071 -0.7071 -14.6286 73.9416)" width="7.5" height="13.8"/><polygon points="4.9,12.4 6.3,12.4 6.3,3.9 3.2,3.9 3.2,5.2 4.9,5.2  "/><path d="M11.7,12.5c1.2,0,2-0.4,2.6-1.2c0.6-0.8,0.9-1.9,0.9-3.2c0-1.3-0.3-2.4-0.9-3.2c-0.6-0.8-1.5-1.2-2.6-1.2   c-1.2,0-2,0.4-2.6,1.2C8.5,5.7,8.2,6.8,8.2,8.1c0,1.3,0.3,2.4,0.9,3.2C9.7,12.1,10.5,12.5,11.7,12.5z M10.1,5.8   c0.3-0.6,0.9-0.9,1.6-0.9c0.7,0,1.2,0.3,1.6,0.9c0.3,0.6,0.5,1.4,0.5,2.3c0,1-0.2,1.7-0.5,2.3c-0.3,0.6-0.9,0.9-1.6,0.9   c-0.7,0-1.2-0.3-1.6-0.9C9.8,9.8,9.6,9.1,9.6,8.1C9.6,7.1,9.8,6.4,10.1,5.8z"/><path d="M4.7,27.6c1.2,0,2-0.4,2.6-1.2c0.6-0.8,0.9-1.9,0.9-3.2c0-1.3-0.3-2.4-0.9-3.2c-0.6-0.8-1.5-1.2-2.6-1.2   c-1.2,0-2,0.4-2.6,1.2c-0.6,0.8-0.9,1.9-0.9,3.2c0,1.3,0.3,2.4,0.9,3.2C2.7,27.1,3.5,27.6,4.7,27.6z M3.1,20.8   c0.3-0.6,0.9-0.9,1.6-0.9s1.2,0.3,1.6,0.9c0.3,0.6,0.5,1.4,0.5,2.3c0,1-0.2,1.7-0.5,2.3C6,26,5.4,26.3,4.7,26.3S3.5,26,3.1,25.4   c-0.3-0.6-0.5-1.4-0.5-2.3C2.6,22.2,2.8,21.4,3.1,20.8z"/><polygon points="12.4,27.5 12.4,18.9 9.3,18.9 9.3,20.2 11,20.2 11,27.5  "/><path d="M22.9,35.4c-1.2,0-2,0.4-2.6,1.2c-0.6,0.8-0.9,1.9-0.9,3.2c0,1.3,0.3,2.4,0.9,3.2c0.6,0.8,1.5,1.2,2.6,1.2   c1.2,0,2-0.4,2.6-1.2c0.6-0.8,0.9-1.9,0.9-3.2c0-1.3-0.3-2.4-0.9-3.2C24.9,35.8,24,35.4,22.9,35.4z M24.4,42.2   c-0.3,0.6-0.9,0.9-1.6,0.9s-1.2-0.3-1.6-0.9c-0.3-0.6-0.5-1.4-0.5-2.3c0-1,0.2-1.7,0.5-2.3c0.3-0.6,0.9-0.9,1.6-0.9   s1.2,0.3,1.6,0.9c0.3,0.6,0.5,1.4,0.5,2.3C24.9,40.8,24.8,41.6,24.4,42.2z"/><polygon points="27.4,36.9 29.2,36.9 29.2,44.2 30.6,44.2 30.6,35.6 27.4,35.6  "/><path d="M36,35.4c-1.2,0-2,0.4-2.6,1.2c-0.6,0.8-0.9,1.9-0.9,3.2c0,1.3,0.3,2.4,0.9,3.2c0.6,0.8,1.5,1.2,2.6,1.2   c1.2,0,2-0.4,2.6-1.2c0.6-0.8,0.9-1.9,0.9-3.2c0-1.3-0.3-2.4-0.9-3.2C38,35.8,37.1,35.4,36,35.4z M37.6,42.2   c-0.3,0.6-0.9,0.9-1.6,0.9c-0.7,0-1.2-0.3-1.6-0.9c-0.3-0.6-0.5-1.4-0.5-2.3c0-1,0.2-1.7,0.5-2.3c0.3-0.6,0.9-0.9,1.6-0.9   c0.7,0,1.2,0.3,1.6,0.9c0.3,0.6,0.5,1.4,0.5,2.3C38.1,40.8,37.9,41.6,37.6,42.2z"/><polygon points="40.6,36.9 42.3,36.9 42.3,44.2 43.7,44.2 43.7,35.6 40.6,35.6  "/><polygon points="25,21.1 26.7,21.1 26.7,10.5 22.8,10.5 22.8,12.1 25,12.1  "/><path d="M33.4,21.2c1.4,0,2.5-0.5,3.2-1.5c0.7-1,1.1-2.3,1.1-4c0-1.7-0.4-3-1.1-4c-0.7-1-1.8-1.5-3.2-1.5   c-1.4,0-2.5,0.5-3.2,1.5c-0.7,1-1.1,2.3-1.1,4c0,1.7,0.4,3,1.1,4C30.8,20.7,31.9,21.2,33.4,21.2z M31.4,12.9c0.4-0.7,1.1-1.1,2-1.1   c0.9,0,1.5,0.4,2,1.1c0.4,0.7,0.6,1.7,0.6,2.9c0,1.2-0.2,2.2-0.6,2.9c-0.4,0.7-1.1,1.1-2,1.1c-0.9,0-1.5-0.4-2-1.1   c-0.4-0.7-0.6-1.7-0.6-2.9S31,13.6,31.4,12.9z"/><polygon points="41.2,21.1 42.9,21.1 42.9,10.5 39,10.5 39,12.1 41.2,12.1  "/></g></g><g id="SvgjsG1145" featureKey="textGroupContainer" transform="matrix(1,0,0,1,405,0)" fill="#1B2145"><rect xmlns="http://www.w3.org/2000/svg" y="0" height="1" width="1" opacity="0"/><rect xmlns="http://www.w3.org/2000/svg" y="0" x="-285" width="3" height="122"/></g><g id="SvgjsG1146" featureKey="6VBqdG-0" transform="matrix(2.21395681946401,0,0,2.21395681946401,137.11441600537813,18.2476082131528)" fill="#1B2145"><path d="M12.46 20 l-1.28 -2.96 l-7.16 0 l-1.28 2.96 l-2.34 0 l6.24 -14 l1.92 0 l6.24 14 l-2.34 0 z M4.82 15.219999999999999 l5.56 0 l-2.78 -6.44 z M26.82 9.58 l-4.64 10.42 l-1.84 0 l-4.64 -10.42 l2.16 0 l3.4 7.72 l3.4 -7.72 l2.16 0 z M33.4 9.42 c2.36 0 5.38 1.8 5.38 5.4 c0 3.62 -3.02 5.38 -5.38 5.38 s-5.38 -1.76 -5.38 -5.38 c0 -3.6 3.02 -5.4 5.38 -5.4 z M33.4 11.34 c-1.52 0 -3.28 1.16 -3.28 3.48 c0 2.3 1.76 3.46 3.28 3.46 s3.28 -1.16 3.28 -3.46 c0 -2.32 -1.76 -3.48 -3.28 -3.48 z M45.1 5.76 c2.3 0 3.88 1.48 4.54 2.92 l-1.64 0.94 c-0.7 -1.18 -1.6 -1.9 -2.9 -1.9 s-2.22 0.76 -2.22 1.8 c0 0.98 0.62 1.58 1.96 2.08 l0.98 0.36 c2.78 1.02 4.2 2.22 4.2 4.32 c0 2.58 -2.46 4.02 -4.84 4.02 c-2.44 0 -4.4 -1.46 -5 -3.44 l1.72 -0.88 c0.5 1.28 1.58 2.32 3.28 2.32 c1.4 0 2.56 -0.74 2.56 -2 c0 -1.34 -0.9 -1.88 -2.5 -2.48 l-0.96 -0.36 c-2.1 -0.78 -3.58 -1.84 -3.58 -4.02 c0 -2.12 1.92 -3.68 4.4 -3.68 z M56.800000000000004 9.42 c2.36 0 5.38 1.8 5.38 5.4 c0 3.62 -3.02 5.38 -5.38 5.38 s-5.38 -1.76 -5.38 -5.38 c0 -3.6 3.02 -5.4 5.38 -5.4 z M56.800000000000004 11.34 c-1.52 0 -3.28 1.16 -3.28 3.48 c0 2.3 1.76 3.46 3.28 3.46 s3.28 -1.16 3.28 -3.46 c0 -2.32 -1.76 -3.48 -3.28 -3.48 z M66.14000000000001 5.859999999999999 l0 14.14 l-2.16 0 l0 -14.14 l2.16 0 z M72.10000000000001 20.16 c-2 0 -3.96 -1.3 -3.96 -4.54 l0 -6.02 l2.16 0 l0 5.9 c0 1.98 0.94 2.76 2.28 2.76 c1.72 0 2.84 -1.6 3.08 -2.62 l0 -6.04 l2.16 0 l0 10.4 l-2.16 0 l0 -2.2 c-0.2 0.64 -1.4 2.36 -3.56 2.36 z M85.32000000000002 11.4 l-2.2 0 l0 5.82 c0 0.56 0.2 1 0.84 1 c0.54 0 0.92 -0.1 1.36 -0.28 l0 1.82 c-0.44 0.22 -1.02 0.36 -1.92 0.36 c-1.3 0 -2.44 -0.52 -2.44 -2.82 l0 -5.9 l-1.44 0 l0 -1.8 l1.44 0 l0 -2.44 l2.16 0 l0 2.44 l2.2 0 l0 1.8 z M89.28000000000002 5.859999999999999 l0 1.88 l-2.16 0 l0 -1.88 l2.16 0 z M89.28000000000002 9.6 l0 10.4 l-2.16 0 l0 -10.4 l2.16 0 z M96.46000000000001 9.42 c2.36 0 5.38 1.8 5.38 5.4 c0 3.62 -3.02 5.38 -5.38 5.38 s-5.38 -1.76 -5.38 -5.38 c0 -3.6 3.02 -5.4 5.38 -5.4 z M96.46000000000001 11.34 c-1.52 0 -3.28 1.16 -3.28 3.48 c0 2.3 1.76 3.46 3.28 3.46 s3.28 -1.16 3.28 -3.46 c0 -2.32 -1.76 -3.48 -3.28 -3.48 z M109.36000000000001 9.44 c2 0 3.96 1.3 3.96 4.54 l0 6.02 l-2.16 0 l0 -5.9 c0 -1.98 -0.94 -2.76 -2.28 -2.76 c-1.72 0 -2.84 1.6 -3.08 2.62 l0 6.04 l-2.16 0 l0 -10.4 l2.16 0 l0 2.2 c0.2 -0.64 1.4 -2.36 3.56 -2.36 z"/></g><g id="SvgjsG1147" featureKey="rMoqOW-0" transform="matrix(0.6070318624296258,0,0,0.6070318624296258,137.27156173613892,79.50349691237749)" fill="#1B2145"><path d="M3.82 6 l0 14 l-2.62 0 l0 -14 l2.62 0 z M29.36 6 l2.62 0 l0 14 l-2 0 l-7.3 -9.22 l0 9.22 l-2.62 0 l0 -14 l2.02 0 l7.28 9.24 l0 -9.24 z M57.519999999999996 6 l2.62 0 l0 14 l-2 0 l-7.3 -9.22 l0 9.22 l-2.62 0 l0 -14 l2.02 0 l7.28 9.24 l0 -9.24 z M83.32 5.800000000000001 c3.84 0 7.24 2.96 7.24 7.2 s-3.4 7.2 -7.24 7.2 s-7.24 -2.96 -7.24 -7.2 s3.4 -7.2 7.24 -7.2 z M83.32 17.740000000000002 c2.44 0 4.5 -1.98 4.5 -4.74 s-2.06 -4.74 -4.5 -4.74 c-2.46 0 -4.52 1.98 -4.52 4.74 s2.06 4.74 4.52 4.74 z M117.72 6 l2.78 0 l-6.22 14 l-2.34 0 l-6.24 -14 l2.78 0 l4.62 10.76 z M147.16 20 l-1.16 -2.7 l-6.92 0 l-1.16 2.7 l-2.78 0 l6.24 -14 l2.34 0 l6.22 14 l-2.78 0 z M140 15.16 l5.08 0 l-2.54 -5.92 z M174.78 6 l0 2.42 l-3.6 0 l0 11.58 l-2.62 0 l0 -11.58 l-3.58 0 l0 -2.42 l9.8 0 z M193.24 17.58 l6.1 0 l0 2.42 l-6.5 0 l-2.22 0 l0 -14 l2.62 0 l5.92 0 l0 2.42 l-5.92 0 l0 3.36 l4.5 0 l0 2.36 l-4.5 0 l0 3.44 z M237.74 6 l0 14 l-2.62 0 l0 -14 l2.62 0 z M263.28000000000003 6 l2.62 0 l0 14 l-2 0 l-7.3 -9.22 l0 9.22 l-2.62 0 l0 -14 l2.02 0 l7.28 9.24 l0 -9.24 z M306.50000000000006 5.76 c2.38 0 3.96 1.52 4.66 2.9 l-1.94 1.14 c-0.74 -1.1 -1.54 -1.72 -2.72 -1.72 c-1.12 0 -1.92 0.66 -1.92 1.56 c0 0.86 0.52 1.36 1.72 1.8 l0.96 0.36 c2.98 1.06 4.28 2.36 4.28 4.36 c0 2.72 -2.58 4.14 -4.96 4.14 c-2.5 0 -4.46 -1.48 -5.1 -3.44 l2.02 -1.06 c0.5 1.12 1.44 2.12 3.08 2.12 c1.24 0 2.24 -0.6 2.24 -1.72 c0 -1.14 -0.72 -1.64 -2.28 -2.22 l-0.9 -0.32 c-2.08 -0.76 -3.66 -1.8 -3.66 -4.12 c0 -2.2 2.02 -3.78 4.52 -3.78 z M336.08000000000004 6 l0 2.42 l-3.6 0 l0 11.58 l-2.62 0 l0 -11.58 l-3.58 0 l0 -2.42 l9.8 0 z M364.54 6 l-5.3 7.92 l0 6.08 l-2.62 0 l0 -6.08 l-5.3 -7.92 l2.96 0 l3.64 5.54 l3.64 -5.54 l2.98 0 z M382.8 17.58 l5.68 0 l0 2.42 l-8.3 0 l0 -14 l2.62 0 l0 11.58 z M406.94 17.58 l6.1 0 l0 2.42 l-6.5 0 l-2.22 0 l0 -14 l2.62 0 l5.92 0 l0 2.42 l-5.92 0 l0 3.36 l4.5 0 l0 2.36 l-4.5 0 l0 3.44 z"/></g>
			</g>
		</svg>
	